<svg id="visual" viewBox="0 0 960 300" width="960" height="300"
    xmlns="http://www.w3.org/2000/svg"
    xmlns:xlink="http://www.w3.org/1999/xlink" version="1.1">
    <path d="M0 108L22.8 110.5C45.7 113 91.3 118 137 116.2C182.7 114.3 228.3 105.7 274 97.5C319.7 89.3 365.3 81.7 411.2 85C457 88.3 503 102.7 548.8 106.3C594.7 110 640.3 103 686 104.3C731.7 105.7 777.3 115.3 823 108C868.7 100.7 914.3 76.3 937.2 64.2L960 52L960 301L937.2 301C914.3 301 868.7 301 823 301C777.3 301 731.7 301 686 301C640.3 301 594.7 301 548.8 301C503 301 457 301 411.2 301C365.3 301 319.7 301 274 301C228.3 301 182.7 301 137 301C91.3 301 45.7 301 22.8 301L0 301Z" fill="#2dd4bf"></path>
    <path d="M0 145L22.8 146.7C45.7 148.3 91.3 151.7 137 151.5C182.7 151.3 228.3 147.7 274 151.7C319.7 155.7 365.3 167.3 411.2 172.8C457 178.3 503 177.7 548.8 167.2C594.7 156.7 640.3 136.3 686 129.2C731.7 122 777.3 128 823 129.8C868.7 131.7 914.3 129.3 937.2 128.2L960 127L960 301L937.2 301C914.3 301 868.7 301 823 301C777.3 301 731.7 301 686 301C640.3 301 594.7 301 548.8 301C503 301 457 301 411.2 301C365.3 301 319.7 301 274 301C228.3 301 182.7 301 137 301C91.3 301 45.7 301 22.8 301L0 301Z" fill="#24b0a1"></path>
    <path d="M0 154L22.8 152.8C45.7 151.7 91.3 149.3 137 156.7C182.7 164 228.3 181 274 184.2C319.7 187.3 365.3 176.7 411.2 170.7C457 164.7 503 163.3 548.8 167.2C594.7 171 640.3 180 686 186.8C731.7 193.7 777.3 198.3 823 191C868.7 183.7 914.3 164.3 937.2 154.7L960 145L960 301L937.2 301C914.3 301 868.7 301 823 301C777.3 301 731.7 301 686 301C640.3 301 594.7 301 548.8 301C503 301 457 301 411.2 301C365.3 301 319.7 301 274 301C228.3 301 182.7 301 137 301C91.3 301 45.7 301 22.8 301L0 301Z" fill="#1d8e83"></path>
    <path d="M0 207L22.8 204C45.7 201 91.3 195 137 192.3C182.7 189.7 228.3 190.3 274 196.7C319.7 203 365.3 215 411.2 221.2C457 227.3 503 227.7 548.8 222.2C594.7 216.7 640.3 205.3 686 203.8C731.7 202.3 777.3 210.7 823 213.5C868.7 216.3 914.3 213.7 937.2 212.3L960 211L960 301L937.2 301C914.3 301 868.7 301 823 301C777.3 301 731.7 301 686 301C640.3 301 594.7 301 548.8 301C503 301 457 301 411.2 301C365.3 301 319.7 301 274 301C228.3 301 182.7 301 137 301C91.3 301 45.7 301 22.8 301L0 301Z" fill="#186d66"></path>
    <path d="M0 243L22.8 242.3C45.7 241.7 91.3 240.3 137 242.8C182.7 245.3 228.3 251.7 274 249.8C319.7 248 365.3 238 411.2 239.8C457 241.7 503 255.3 548.8 257.5C594.7 259.7 640.3 250.3 686 244.2C731.7 238 777.3 235 823 233.3C868.7 231.7 914.3 231.3 937.2 231.2L960 231L960 301L937.2 301C914.3 301 868.7 301 823 301C777.3 301 731.7 301 686 301C640.3 301 594.7 301 548.8 301C503 301 457 301 411.2 301C365.3 301 319.7 301 274 301C228.3 301 182.7 301 137 301C91.3 301 45.7 301 22.8 301L0 301Z" fill="#134e4a"></path>
    
</svg>