<svg class="bg-gray-900" width="100%" height="300px" version="1.1"
    xmlns="http://www.w3.org/2000/svg" id="divider1">
    <defs></defs>
    <path fill="rgba(255, 0, 255, 0.3)" d="M 0 51.475 C 129.899 91.947 129.899 91.947 259.799 71.711 C 389.699 51.475 389.699 51.475 519.599 62.7921 C 649.499 74.1087 649.499 74.1087 779.399 32.9179 C 909.299 -8.2728 909.299 -8.2728 1039.199 9.5552 C 1169.099 27.3831 1169.099 27.3831 1298.999 48.9508 L 1298.999 2177.9996 L 0 2177.9996 Z"></path>
    <path fill="rgba(255, 64, 191, 0.475)" d="M 0 61.4763 C 129.899 101.9461 129.899 101.9461 259.799 81.7111 C 389.699 61.4763 389.699 61.4763 519.599 72.791 C 649.499 84.1053 649.499 84.1053 779.399 42.9167 C 909.299 1.7282 909.299 1.7282 1039.199 19.555 C 1169.099 37.3818 1169.099 37.3818 1298.999 58.9493 L 1298.999 2177.9996 L 0 2177.9996 Z"></path>
    <path fill="rgba(255, 128, 128, 0.65)" d="M 0 71.4763 C 129.899 111.9461 129.899 111.9461 259.799 91.7111 C 389.699 71.4763 389.699 71.4763 519.599 82.791 C 649.499 94.1053 649.499 94.1053 779.399 52.9167 C 909.299 11.7282 909.299 11.7282 1039.199 29.555 C 1169.099 47.3818 1169.099 47.3818 1298.999 68.9493 L 1298.999 2177.9996 L 0 2177.9996 Z"></path>
    <path fill="rgba(255, 191, 64, 0.825)" d="M 0 81.4771 C 129.899 121.9462 129.899 121.9462 259.799 101.7117 C 389.699 81.4771 389.699 81.4771 519.599 92.7908 C 649.499 104.1042 649.499 104.1042 779.399 62.9161 C 909.299 21.7282 909.299 21.7282 1039.199 39.5546 C 1169.099 57.381 1169.099 57.381 1298.999 78.9489 L 1298.999 2177.9996 L 0 2177.9996 Z"></path>
    <path fill="rgba(255, 255, 0, 1)" d="M 0 91.4775 C 129.899 131.9463 129.899 131.9463 259.799 111.7118 C 389.699 91.4775 389.699 91.4775 519.599 102.7905 C 649.499 114.1036 649.499 114.1036 779.399 72.9157 C 909.299 31.7279 909.299 31.7279 1039.199 49.5543 C 1169.099 67.3805 1169.099 67.3805 1298.999 88.9485 L 1298.999 2177.9996 L 0 2177.9996 Z"></path>
</svg>